<svg width="1200" height="1400" viewBox="0 0 1200 1400" fill="none" xmlns="http://www.w3.org/2000/svg">
  <rect width="1200" height="1400" fill="#0B0807"/>
  <circle cx="922" cy="262" r="245" fill="#C98F83" fill-opacity="0.18"/>
  <circle cx="318" cy="1118" r="272" fill="#D6B36A" fill-opacity="0.16"/>
  <rect x="102" y="118" width="996" height="1164" rx="56" fill="url(#a)" stroke="rgba(255,248,240,0.16)"/>
  <rect x="158" y="180" width="884" height="1050" rx="42" fill="#181210"/>
  <path d="M290 1026C372 912 500 838 618 838C744 838 850 922 898 1026" stroke="#F5DFBD" stroke-opacity="0.72" stroke-width="18" stroke-linecap="round"/>
  <path d="M398 720C466 592 582 498 700 498C790 498 866 556 910 652" stroke="#C98F83" stroke-opacity="0.76" stroke-width="20" stroke-linecap="round"/>
  <circle cx="560" cy="660" r="136" fill="#2A211D"/>
  <rect x="312" y="376" width="326" height="150" rx="75" fill="#2A211D"/>
  <rect x="390" y="1060" width="420" height="42" rx="21" fill="#2A211D"/>
  <text x="600" y="128" fill="#FFF8F0" fill-opacity="0.72" font-family="Georgia, serif" font-style="italic" font-size="52" text-anchor="middle">Cleuza Priori</text>
  <defs>
    <linearGradient id="a" x1="102" y1="118" x2="1098" y2="1282" gradientUnits="userSpaceOnUse">
      <stop stop-color="#D6B36A"/>
      <stop offset="0.48" stop-color="#C98F83"/>
      <stop offset="1" stop-color="#F5DFBD"/>
    </linearGradient>
  </defs>
</svg>
